<svg version="1.0" xmlns="http://www.w3.org/2000/svg"
 width="16.000000pt" height="16.000000pt" viewBox="0 0 16.000000 16.000000"
 preserveAspectRatio="xMidYMid meet">

<g transform="translate(0.000000,16.000000) scale(0.100000,-0.100000)"
fill="#000000" stroke="none">
<path d="M73 90 c-3 -11 -12 -20 -19 -20 -8 0 -14 -4 -14 -10 0 -19 42 -10 47
10 3 11 12 20 19 20 8 0 14 5 14 10 0 19 -42 10 -47 -10z"/>
<path d="M100 60 c0 -5 5 -10 10 -10 6 0 10 5 10 10 0 6 -4 10 -10 10 -5 0
-10 -4 -10 -10z"/>
</g>
</svg>